# xmcd
#
# Track frame offsets:
#	150
#	19458
#	39458
#	60723
#	82428
#	112115
#	130253
#	146963
#
# Disc length: 2235
#
# Revision: 2
# Processed by: cddbd v1.5.1PL0 Copyright (c) Steve Scherf et al.
# Submitted via: Audion 3.0.2 (http://www.panic.com/audion/)
# Normalized: r0:DSETVAR1,TSWAP
#
DISCID=7e08b908
DTITLE=Various Artist - Wedding Music - Louise and Howard Brazee
DYEAR=1900
DGENRE=
TTITLE0=Tracy Byrd - Keeper Of The Stars
TTITLE1=John Michael Montgomery - I Sweer
TTITLE2=Shania Twain and Bryan White - From This Moment On
TTITLE3=Matthew Sweet - This Moment
TTITLE4=Bryan Adams - Everything I Do (I Do It For You)
TTITLE5=Lonestar - Amazed
TTITLE6=Garth Brooks - The Dance
TTITLE7=Savage Garden - Truly Madly Deeply
EXTD=
EXTT0=
EXTT1=
EXTT2=
EXTT3=
EXTT4=
EXTT5=
EXTT6=
EXTT7=
PLAYORDER=
